<?xml version="1.0" standalone="no"?>
<!DOCTYPE svg PUBLIC "-//W3C//DTD SVG 20010904//EN"
 "http://www.w3.org/TR/2001/REC-SVG-20010904/DTD/svg10.dtd">
<svg version="1.0" xmlns="http://www.w3.org/2000/svg"
 width="1280.000000pt" height="1222.000000pt" viewBox="0 0 1280.000000 1222.000000"
 preserveAspectRatio="xMidYMid meet">
<metadata>
Created by potrace 1.15, written by Peter Selinger 2001-2017
</metadata>
<g transform="translate(0.000000,1222.000000) scale(0.100000,-0.100000)"
fill="#000000" stroke="none">
<path d="M5110 12213 c-117 -19 -291 -112 -376 -199 -56 -59 -104 -148 -130
-245 -14 -49 -18 -102 -18 -224 0 -204 24 -378 115 -840 74 -377 91 -661 55
-870 -20 -110 -114 -403 -256 -795 -252 -697 -310 -961 -310 -1410 0 -269 23
-519 65 -722 7 -35 12 -64 10 -66 -1 -1 -15 17 -30 40 -51 77 -220 301 -297
393 -41 50 -178 198 -303 330 -316 334 -450 505 -551 702 -89 175 -106 238
-229 858 -88 441 -129 584 -225 775 -71 141 -164 221 -315 272 -60 20 -89 23
-200 22 -113 0 -141 -4 -211 -27 -112 -37 -188 -90 -278 -192 -137 -157 -177
-289 -145 -485 25 -157 140 -416 329 -745 341 -591 423 -792 450 -1099 6 -73
9 -366 8 -726 -3 -632 0 -706 43 -965 17 -107 65 -309 85 -359 4 -12 -19 0
-67 34 -250 178 -423 344 -536 513 -56 84 -157 286 -305 612 -181 397 -273
560 -409 721 -115 137 -207 184 -380 192 -136 6 -228 -14 -348 -74 -122 -61
-203 -143 -270 -272 -83 -162 -98 -262 -62 -404 51 -199 198 -400 603 -828
253 -267 352 -382 436 -506 148 -220 195 -350 311 -854 232 -1008 301 -1196
596 -1640 274 -411 602 -743 1005 -1016 136 -92 332 -206 416 -241 l66 -28 49
-150 c199 -606 648 -1129 1219 -1420 373 -189 709 -270 1130 -270 225 1 330
11 515 50 928 199 1666 910 1889 1822 55 227 70 350 70 599 l1 221 60 12 c90
19 338 103 461 156 220 96 463 228 679 370 337 222 649 542 910 935 140 212
199 318 377 676 208 418 302 575 440 730 140 158 223 219 678 497 337 206 359
220 483 313 142 106 294 259 331 333 63 124 71 283 21 436 -83 252 -274 410
-551 456 -59 10 -84 9 -149 -4 -228 -47 -423 -213 -843 -716 -322 -386 -504
-560 -706 -675 -76 -44 -324 -151 -332 -144 -2 2 10 24 27 48 294 437 485
1015 569 1720 67 572 130 822 268 1069 45 80 266 365 484 624 145 171 195 236
277 359 78 116 174 307 190 378 24 106 9 213 -49 335 -68 144 -175 252 -315
319 -92 44 -152 56 -289 56 -176 0 -268 -35 -386 -147 -145 -137 -255 -345
-447 -853 -159 -419 -244 -600 -362 -766 -106 -152 -196 -234 -702 -639 -611
-491 -791 -675 -1023 -1050 -86 -139 -222 -397 -267 -508 -29 -73 -33 -64 -48
112 -14 167 -14 380 -1 491 14 118 55 278 94 369 99 229 143 328 243 541 206
439 266 626 267 830 1 133 -11 176 -81 282 -80 121 -202 214 -352 265 -145 50
-337 33 -496 -43 -169 -81 -278 -254 -339 -539 -38 -172 -54 -295 -107 -780
-17 -163 -58 -401 -85 -493 -80 -280 -132 -369 -531 -905 -120 -161 -255 -346
-302 -412 -46 -66 -81 -109 -78 -95 41 177 81 437 98 640 31 365 -37 845 -181
1280 -66 201 -124 343 -255 629 -239 523 -305 749 -306 1043 -1 124 10 223 71
658 54 383 64 499 57 680 -10 240 -38 333 -135 441 -48 54 -152 125 -227 156
-99 42 -258 62 -355 46z m89 -208 c66 -36 101 -78 152 -180 58 -117 69 -183
80 -480 5 -143 14 -291 19 -328 14 -97 -10 -146 -85 -175 -38 -14 -180 -32
-260 -32 -33 0 -103 -7 -155 -16 -52 -9 -121 -18 -152 -21 l-56 -5 -11 38
c-23 78 -70 332 -80 426 -13 116 -14 367 -2 460 12 87 43 150 111 219 92 93
182 130 305 126 66 -3 90 -8 134 -32z m6181 -1141 c67 -20 115 -50 162 -102
59 -65 71 -103 71 -217 1 -171 -47 -293 -231 -598 -56 -93 -106 -185 -112
-206 -23 -85 -85 -122 -167 -101 -25 6 -119 48 -208 94 -89 46 -200 98 -248
116 -48 18 -92 39 -98 46 -23 28 123 406 227 587 107 187 208 313 283 352 86
44 227 57 321 29z m-6035 -490 c53 -25 68 -69 71 -206 1 -79 -2 -120 -9 -126
-21 -17 -61 -21 -192 -23 -72 0 -166 -7 -210 -15 -154 -26 -199 -15 -194 50 2
17 -1 53 -5 79 -16 95 31 176 125 217 38 16 83 24 173 29 189 12 206 12 241
-5z m-3320 -394 c99 -42 200 -152 273 -295 48 -94 68 -144 128 -318 44 -125
66 -177 104 -247 55 -101 -1 -170 -205 -252 -44 -18 -143 -64 -220 -103 -77
-39 -148 -74 -158 -78 -14 -5 -28 10 -71 76 -140 215 -246 442 -311 667 -41
144 -43 200 -11 293 77 217 292 335 471 257z m6056 -195 c132 -47 193 -135
218 -318 18 -131 -4 -252 -113 -625 -20 -68 -36 -139 -36 -159 0 -48 -27 -101
-61 -118 -45 -24 -131 -18 -288 20 -80 19 -200 41 -265 50 -66 8 -123 18 -127
22 -10 10 6 243 26 375 26 176 61 306 141 523 36 98 138 189 253 226 71 23
193 24 252 4z m-2772 -266 c64 -7 117 -13 119 -14 1 -1 17 -78 36 -171 19 -93
71 -334 115 -536 139 -629 150 -709 158 -1108 9 -477 -32 -836 -148 -1293 -83
-325 -155 -507 -252 -632 -74 -97 -100 -110 -212 -110 -80 0 -97 3 -155 31
-112 54 -182 130 -294 323 -21 36 -62 126 -91 200 -30 75 -78 188 -108 252
-140 298 -236 822 -224 1224 14 428 120 858 392 1586 56 148 61 158 99 181
112 70 305 92 565 67z m5265 -102 c30 -14 75 -39 98 -55 24 -16 60 -35 81 -41
20 -7 53 -27 72 -46 30 -28 35 -39 35 -79 0 -26 -5 -57 -11 -69 -31 -60 -103
-178 -116 -189 -11 -9 -35 -1 -116 41 -56 29 -123 66 -149 83 -26 16 -81 43
-124 59 -90 35 -134 64 -134 88 0 20 53 131 83 175 49 69 170 84 281 33z
m-598 -658 c121 -37 296 -140 448 -264 l37 -30 -31 -85 c-18 -47 -92 -258
-166 -470 -74 -212 -156 -441 -181 -510 -245 -660 -679 -1280 -1252 -1791
-284 -254 -477 -347 -601 -291 -74 34 -71 28 -55 127 54 345 53 795 -5 1212
l-18 133 33 87 c169 451 345 741 643 1062 177 191 461 440 822 721 152 118
155 120 206 120 29 0 83 -9 120 -21z m-7289 -281 c31 -29 49 -64 80 -153 37
-107 37 -111 13 -128 -12 -8 -76 -36 -143 -62 -67 -25 -170 -71 -228 -101 -59
-30 -114 -54 -124 -54 -25 0 -55 29 -55 53 0 10 -9 31 -20 47 -10 15 -25 47
-31 71 -31 117 44 216 207 274 44 15 106 41 139 57 70 35 122 33 162 -4z
m4869 -279 c32 -5 86 -19 119 -29 33 -11 82 -23 109 -26 38 -4 57 -13 83 -39
29 -29 33 -39 33 -87 0 -30 -9 -81 -19 -114 -10 -32 -23 -75 -28 -94 -8 -31
-13 -35 -45 -38 -20 -2 -96 13 -170 33 -73 20 -177 42 -231 50 -121 17 -151
34 -143 78 3 18 9 57 14 88 19 108 65 160 162 180 51 10 51 10 116 -2z m-4472
-642 c49 -84 180 -300 291 -482 224 -365 305 -510 388 -692 263 -575 416
-1296 405 -1907 l-3 -186 -80 -80 c-73 -74 -81 -79 -93 -63 -7 10 -41 64 -76
120 -126 202 -272 377 -487 588 -230 225 -414 369 -744 583 l-200 129 -21 69
c-32 102 -73 291 -94 436 -37 251 -45 409 -44 870 1 445 1 446 24 483 40 65
172 148 325 204 62 22 278 79 305 80 9 0 51 -61 104 -152z m9137 -46 c196 -62
296 -231 243 -412 -49 -165 -135 -270 -411 -502 -83 -69 -165 -144 -183 -166
-55 -70 -109 -87 -178 -54 -21 9 -103 85 -185 169 -81 83 -174 173 -207 199
-32 26 -61 54 -64 62 -9 23 140 216 278 362 133 139 357 314 441 343 69 24
186 23 266 -1z m-11688 -108 c67 -21 185 -102 248 -171 64 -70 138 -171 244
-334 44 -68 101 -146 126 -175 53 -58 63 -81 55 -127 -9 -50 -60 -101 -200
-206 -72 -53 -169 -131 -214 -173 -46 -42 -89 -77 -96 -77 -32 0 -257 234
-377 392 -126 165 -227 347 -238 431 -22 165 64 347 198 420 86 48 151 53 254
20z m6767 -12 c80 -18 202 -59 332 -113 68 -27 65 -8 43 -235 -8 -87 -28 -331
-45 -543 -16 -212 -35 -423 -41 -469 -42 -336 -136 -704 -264 -1031 -46 -118
-169 -397 -179 -407 -2 -2 -26 9 -53 26 -74 46 -286 145 -396 185 -205 76
-471 131 -695 143 l-123 6 7 76 c32 408 91 675 190 865 76 147 120 249 164
381 60 178 260 487 633 974 84 111 114 142 140 150 55 16 197 12 287 -8z
m3694 -972 c55 -20 84 -45 216 -185 82 -86 100 -114 100 -154 0 -46 -27 -88
-86 -136 -26 -22 -64 -54 -85 -72 -26 -23 -44 -32 -57 -28 -18 6 -152 146
-197 206 -11 15 -57 59 -103 99 -80 71 -102 106 -85 133 22 35 136 131 170
144 51 18 63 17 127 -7z m-9508 -308 c17 -10 49 -47 72 -82 23 -35 50 -76 62
-91 39 -51 26 -72 -105 -164 -38 -27 -88 -61 -110 -75 -22 -14 -73 -55 -112
-91 -40 -36 -82 -68 -93 -71 -20 -5 -70 26 -70 44 0 6 -14 25 -32 42 -37 38
-68 101 -68 142 0 79 87 187 204 254 29 17 61 40 72 52 52 59 123 75 180 40z
m8767 -147 c111 -57 240 -187 363 -369 64 -93 72 -111 60 -124 -63 -75 -232
-287 -436 -546 -291 -371 -367 -459 -542 -632 -395 -391 -862 -706 -1406 -947
l-103 -45 -9 24 c-104 272 -244 515 -419 727 l-80 97 51 88 c28 48 82 151 120
228 39 77 93 169 121 205 67 85 224 264 276 314 l40 39 89 -41 c49 -23 122
-50 163 -61 178 -47 250 -39 434 53 367 182 725 492 1079 933 31 39 65 74 74
76 40 11 76 5 125 -19z m-5399 -389 c134 -99 256 -135 461 -135 249 0 429 47
549 142 l39 32 -6 -30 c-37 -169 -59 -290 -72 -408 -9 -78 -18 -160 -21 -183
l-5 -43 -49 0 c-219 0 -572 -75 -820 -175 -62 -25 -114 -45 -116 -45 -2 0 -4
84 -4 188 0 103 -5 239 -10 302 -11 114 -56 426 -67 458 -3 9 12 -2 33 -25 22
-23 61 -58 88 -78z m-2491 -550 c228 -228 450 -454 494 -502 238 -266 464
-603 633 -942 80 -160 78 -136 30 -266 -137 -371 -181 -837 -116 -1230 8 -44
12 -82 10 -84 -7 -8 -293 138 -399 204 -406 250 -824 666 -1059 1052 -215 354
-354 748 -510 1446 -31 137 -56 260 -56 275 0 69 106 192 250 292 77 53 285
169 302 170 4 0 193 -187 421 -415z m5864 40 c1 0 -43 -47 -98 -104 -54 -57
-99 -101 -99 -99 0 2 13 42 28 89 16 46 35 107 41 136 l13 52 56 -37 c32 -20
58 -37 59 -37z"/>
</g>
</svg>
